<?xml version="1.0" encoding="UTF-8" standalone="no"?>
<!-- Created with Inkscape (http://www.inkscape.org/) -->

<svg
   width="210mm"
   height="297mm"
   viewBox="0 0 210 297"
   version="1.1"
   id="svg1"
   inkscape:version="1.4 (86a8ad7, 2024-10-11)"
   sodipodi:docname="pls.svg"
   xmlns:inkscape="http://www.inkscape.org/namespaces/inkscape"
   xmlns:sodipodi="http://sodipodi.sourceforge.net/DTD/sodipodi-0.dtd"
   xmlns="http://www.w3.org/2000/svg"
   xmlns:svg="http://www.w3.org/2000/svg">
  <sodipodi:namedview
     id="namedview1"
     pagecolor="#ffffff"
     bordercolor="#666666"
     borderopacity="1.0"
     inkscape:showpageshadow="2"
     inkscape:pageopacity="0.0"
     inkscape:pagecheckerboard="0"
     inkscape:deskcolor="#d1d1d1"
     inkscape:document-units="mm"
     inkscape:zoom="2.0535659"
     inkscape:cx="211.09622"
     inkscape:cy="310.92258"
     inkscape:window-width="1920"
     inkscape:window-height="1017"
     inkscape:window-x="-8"
     inkscape:window-y="-8"
     inkscape:window-maximized="1"
     inkscape:current-layer="layer1" />
  <defs
     id="defs1">
    <rect
       x="122.5819"
       y="166.6563"
       width="531.64736"
       height="421.46138"
       id="rect1" />
  </defs>
  <g
     inkscape:label="Layer 1"
     inkscape:groupmode="layer"
     id="layer1">
    <path
       d="m 155.78516,251.10937 c 1.32812,0.39063 2.96875,0.46875 5.15625,0.46875 4.6875,0 9.60937,-1.01562 13.98437,-3.4375 5.85938,-3.20312 11.64063,-9.84375 11.64063,-20.3125 0,-7.96875 -3.67188,-13.28125 -7.89063,-16.40625 -4.6875,-3.75 -11.79687,-4.29687 -15.78125,-4.29687 -8.04687,0 -13.28125,0.0781 -21.32812,0.23437 -6.01563,0 -12.57813,-0.39062 -15.15625,-0.39062 -0.46875,0.39062 -0.70313,2.89062 -0.23438,3.75 2.26563,0.23437 4.21875,0.54687 5.78125,0.78125 3.35938,0.78125 3.90625,2.42187 4.14063,6.48437 0.3125,3.75 0.15625,11.01563 0.15625,24.375 0,13.82813 -0.15625,22.73438 -0.23438,27.03125 -0.23437,4.0625 -0.70312,5.85938 -3.59375,6.71875 -1.79687,0.3125 -3.90625,0.625 -6.40625,0.9375 -0.3125,0.46875 -0.3125,3.125 0.15625,3.75 4.29688,0 11.25,-0.39062 17.10938,-0.39062 5.70312,0 13.82812,0.39062 17.89062,0.39062 0.625,-0.625 0.78125,-3.28125 0.3125,-3.75 -3.04687,-0.3125 -5.46875,-0.625 -7.42187,-1.17187 -3.28125,-0.70313 -3.90625,-2.57813 -4.14063,-6.09375 -0.3125,-6.40625 -0.23437,-18.20313 -0.23437,-28.35938 0,-17.8125 0.15625,-24.375 0.39062,-27.65625 0,-0.70312 0.54688,-1.40625 0.78125,-1.48437 0.85938,-0.46875 3.28125,-0.625 4.21875,-0.625 11.64063,0 17.26563,7.73437 17.26563,18.75 0,7.26562 -1.875,12.10937 -6.5625,14.84375 -2.10938,1.17187 -4.21875,1.79687 -7.34375,1.79687 -1.64063,0 -3.20313,-0.0781 -4.0625,-0.3125 -0.23438,0.23438 -0.46875,0.70313 -0.46875,1.17188 0.15625,0.70312 1.09375,2.65625 1.875,3.20312 z m 38.51562,-40.39062 c 2.1875,0.23437 4.92188,0.54687 6.48438,0.9375 3.04687,0.70312 3.51562,2.26562 3.59375,6.09375 0.3125,3.75 0.3125,10.54687 0.3125,23.90625 0,13.90625 -0.3125,26.25 -0.54688,29.375 -0.23437,2.73437 -1.01562,4.14062 -3.4375,4.84375 -2.26562,0.54687 -3.90625,0.70312 -7.57812,1.17187 -0.46875,0.39063 -0.46875,3.125 0,3.75 3.35937,0 10.3125,-0.39062 17.73437,-0.39062 7.57813,0 24.60938,0.625 33.35938,0.625 4.21875,0 5.46875,-0.70313 5.9375,-1.64063 2.5,-3.98437 6.09375,-16.95312 6.64062,-20.85937 -0.3125,-0.78125 -3.04687,-1.71875 -3.75,-1.48438 -2.1875,4.92188 -5.39062,10.78125 -7.73437,13.90625 -2.26563,3.28125 -4.45313,4.0625 -6.95313,4.0625 -5.23437,0.15625 -14.76562,0.15625 -17.73437,-0.70312 -0.70313,-0.39063 -2.1875,-1.5625 -2.26563,-3.59375 -0.23437,-4.21875 -0.39062,-16.40625 -0.39062,-30 0.15625,-11.71875 0.15625,-20.78125 0.39062,-23.98438 0.0781,-2.96875 0.3125,-4.21875 3.04688,-5.07812 1.48437,-0.23438 2.89062,-0.625 6.09375,-0.9375 0.46875,-0.625 0.46875,-3.35938 0,-3.75 -3.4375,0 -7.96875,0.39062 -16.25,0.39062 -8.82813,0 -12.5,-0.39062 -16.71875,-0.39062 -0.46875,0.23437 -0.70313,3.04687 -0.23438,3.75 z M 266.95703,259 c -0.54687,-0.3125 -3.59375,0.46875 -3.90625,1.25 0.23438,4.14062 2.42188,16.79687 3.59375,18.4375 2.8125,1.64062 10.15625,3.90625 17.8125,3.90625 17.8125,0 27.65625,-10.3125 27.65625,-22.42188 0,-8.82812 -4.53125,-13.98437 -12.10937,-18.67187 -4.53125,-2.73438 -9.14063,-5.15625 -14.0625,-8.35938 -5,-3.35937 -7.89063,-6.71875 -7.8125,-12.57812 0,-5.85938 4.14062,-11.25 11.40625,-11.25 3.75,0 6.875,0.70312 9.45312,2.57812 2.89063,1.875 4.14063,5.39063 5.07813,12.65625 0.46875,0.3125 3.35937,0.3125 3.75,-0.23437 0.46875,-6.64063 1.25,-12.89063 2.03125,-17.1875 -5.46875,-0.54688 -10.39063,-1.95313 -19.0625,-1.95313 -13.35938,0 -24.53125,7.42188 -24.53125,20.85938 0,11.64062 7.89062,17.42187 18.4375,23.67187 11.01562,6.5625 14.53125,10.3125 14.53125,17.03125 0,7.73438 -5.625,11.17188 -11.48438,11.17188 -4.0625,0 -8.28125,-0.9375 -11.40625,-3.20313 -4.29687,-3.04687 -6.95312,-7.8125 -9.375,-15.70312 z"
       id="text1"
       style="font-size:160px;line-height:1.25;font-family:'Adobe Naskh';-inkscape-font-specification:'Adobe Naskh, Normal';white-space:pre"
       transform="matrix(0.50956722,0,0,0.49110286,-33.832773,-44.487594)"
       aria-label="PLS" />
    <text
       xml:space="preserve"
       style="font-size:10.5833px;line-height:1.25;font-family:sans-serif;stroke-width:0.264583"
       x="-109.32515"
       y="93.655212"
       id="text2"><tspan
         sodipodi:role="line"
         id="tspan1"
         style="stroke-width:0.264583"
         x="-109.32515"
         y="93.655212">`</tspan></text>
    <rect
       style="fill:#000000;stroke:#ffffff;stroke-width:0.264583;stroke-opacity:1"
       id="rect3"
       width="15.669938"
       height="0.3644172"
       x="251.81226"
       y="127.54601" />
    <rect
       style="fill:#000000;fill-opacity:0;stroke:#000000;stroke-width:4.7;stroke-dasharray:none;stroke-opacity:1"
       id="rect4"
       width="97.663795"
       height="40.359207"
       x="28.515644"
       y="55.118099" />
    <ellipse
       style="fill:#ffffff;fill-opacity:1;stroke:#ffffff;stroke-width:0;stroke-dasharray:none;stroke-opacity:1"
       id="path6"
       cx="29.170454"
       cy="94.907875"
       rx="1.3494817"
       ry="1.2982357" />
  </g>
</svg>
